HIERARCHY
ROOT hip
{
  OFFSET 0 0 0
  CHANNELS 6 Xposition Yposition Zposition Zrotation Yrotation Xrotation
  JOINT abdomen
  {
    OFFSET 0 20.6881 -0.73152
    CHANNELS 3 Zrotation Xrotation Yrotation
    JOINT chest
    {
      OFFSET 0 11.7043 -0.48768
      CHANNELS 3 Zrotation Xrotation Yrotation
      JOINT neck
      {
        OFFSET 0 22.1894 -2.19456
        CHANNELS 3 Zrotation Xrotation Yrotation
        JOINT head
        {
          OFFSET -0.24384 7.07133 1.2192
          CHANNELS 3 Zrotation Xrotation Yrotation
          JOINT leftEye
          {
            OFFSET 4.14528 8.04674 8.04672
            CHANNELS 3 Zrotation Xrotation Yrotation
            End Site
            {
              OFFSET 1 0 0
            }
          }
          JOINT rightEye
          {
            OFFSET -3.6576 8.04674 8.04672
            CHANNELS 3 Zrotation Xrotation Yrotation
            End Site
            {
              OFFSET 1 0 0
            }
          }
        }
      }
      JOINT rCollar
      {
        OFFSET -2.68224 19.2634 -4.8768
        CHANNELS 3 Zrotation Xrotation Yrotation
        JOINT rShldr
        {
          OFFSET -8.77824 -1.95073 1.46304
          CHANNELS 3 Zrotation Xrotation Yrotation
          JOINT rForeArm
          {
            OFFSET -28.1742 -1.7115 0.48768
            CHANNELS 3 Zrotation Xrotation Yrotation
            JOINT rHand
            {
              OFFSET -22.5879 0.773209 7.07136
              CHANNELS 3 Zrotation Xrotation Yrotation
              JOINT rThumb1
              {
                OFFSET -1.2192 -0.487915 3.41376
                CHANNELS 3 Zrotation Xrotation Yrotation
                JOINT rThumb2
                {
                  OFFSET -3.37035 -0.52449 3.41376
                  CHANNELS 3 Zrotation Xrotation Yrotation
                  End Site
                  {
                    OFFSET -1.78271 -1.18214 1.43049
                  }
                }
              }
              JOINT rIndex1
              {
                OFFSET -7.75947 0.938293 5.60832
                CHANNELS 3 Zrotation Xrotation Yrotation
                JOINT rIndex2
                {
                  OFFSET -2.54057 -0.884171 1.56538
                  CHANNELS 3 Zrotation Xrotation Yrotation
                  End Site
                  {
                    OFFSET -1.62519 -0.234802 1.16502
                  }
                }
              }
              JOINT rMid1
              {
                OFFSET -8.24714 1.18213 3.41376
                CHANNELS 3 Zrotation Xrotation Yrotation
                JOINT rMid2
                {
                  OFFSET -3.10165 -0.590103 1.0647
                  CHANNELS 3 Zrotation Xrotation Yrotation
                  End Site
                  {
                    OFFSET -2.48547 -0.328903 0.83742
                  }
                }
              }
              JOINT rRing1
              {
                OFFSET -8.82822 0.546677 1.51678
                CHANNELS 3 Zrotation Xrotation Yrotation
                JOINT rRing2
                {
                  OFFSET -2.60934 -0.819778 -0.0198488
                  CHANNELS 3 Zrotation Xrotation Yrotation
                  End Site
                  {
                    OFFSET -2.33842 -0.294052 0.168128
                  }
                }
              }
              JOINT rPinky1
              {
                OFFSET -8.27202 -0.0477905 -0.4584
                CHANNELS 3 Zrotation Xrotation Yrotation
                JOINT rPinky2
                {
                  OFFSET -1.82734 -0.647385 -0.700984
                  CHANNELS 3 Zrotation Xrotation Yrotation
                  End Site
                  {
                    OFFSET -1.69225 -0.51767 -0.607171
                  }
                }
              }
            }
          }
        }
      }
      JOINT lCollar
      {
        OFFSET 2.68224 19.2634 -4.8768
        CHANNELS 3 Zrotation Xrotation Yrotation
        JOINT lShldr
        {
          OFFSET 8.77824 -1.95073 1.46304
          CHANNELS 3 Zrotation Xrotation Yrotation
          JOINT lForeArm
          {
            OFFSET 28.1742 -1.7115 0.48768
            CHANNELS 3 Zrotation Xrotation Yrotation
            JOINT lHand
            {
              OFFSET 22.5879 0.773209 7.07136
              CHANNELS 3 Zrotation Xrotation Yrotation
              JOINT lThumb1
              {
                OFFSET 1.2192 -0.487915 3.41376
                CHANNELS 3 Zrotation Xrotation Yrotation
                JOINT lThumb2
                {
                  OFFSET 3.37035 -0.52449 3.41376
                  CHANNELS 3 Zrotation Xrotation Yrotation
                  End Site
                  {
                    OFFSET 1.78271 -1.18214 1.43049
                  }
                }
              }
              JOINT lIndex1
              {
                OFFSET 7.75947 0.938293 5.60832
                CHANNELS 3 Zrotation Xrotation Yrotation
                JOINT lIndex2
                {
                  OFFSET 2.54057 -0.884171 1.56538
                  CHANNELS 3 Zrotation Xrotation Yrotation
                  End Site
                  {
                    OFFSET 1.62519 -0.234802 1.16502
                  }
                }
              }
              JOINT lMid1
              {
                OFFSET 8.24714 1.18213 3.41376
                CHANNELS 3 Zrotation Xrotation Yrotation
                JOINT lMid2
                {
                  OFFSET 3.10165 -0.590103 1.0647
                  CHANNELS 3 Zrotation Xrotation Yrotation
                  End Site
                  {
                    OFFSET 2.48547 -0.328903 0.83742
                  }
                }
              }
              JOINT lRing1
              {
                OFFSET 8.82822 0.546677 1.51678
                CHANNELS 3 Zrotation Xrotation Yrotation
                JOINT lRing2
                {
                  OFFSET 2.60934 -0.819778 -0.0198488
                  CHANNELS 3 Zrotation Xrotation Yrotation
                  End Site
                  {
                    OFFSET 2.33842 -0.294052 0.168128
                  }
                }
              }
              JOINT lPinky1
              {
                OFFSET 8.27202 -0.0477905 -0.4584
                CHANNELS 3 Zrotation Xrotation Yrotation
                JOINT lPinky2
                {
                  OFFSET 1.82734 -0.647385 -0.700984
                  CHANNELS 3 Zrotation Xrotation Yrotation
                  End Site
                  {
                    OFFSET 1.69225 -0.51767 -0.607171
                  }
                }
              }
            }
          }
        }
      }
    }
  }
  JOINT rButtock
  {
    OFFSET -8.77824 4.35084 1.2192
    CHANNELS 3 Zrotation Xrotation Yrotation
    JOINT rThigh
    {
      OFFSET 0 -1.70687 -2.19456
      CHANNELS 3 Zrotation Xrotation Yrotation
      JOINT rShin
      {
        OFFSET 0 -36.8199 0.73152
        CHANNELS 3 Zrotation Xrotation Yrotation
        JOINT rFoot
        {
          OFFSET 0.73152 -45.1104 -5.12064
          CHANNELS 3 Zrotation Xrotation Yrotation
          End Site
          {
            OFFSET -1.1221 -3.69964 12.103
          }
        }
      }
    }
  }
  JOINT lButtock
  {
    OFFSET 8.77824 4.35084 1.2192
    CHANNELS 3 Zrotation Xrotation Yrotation
    JOINT lThigh
    {
      OFFSET 0 -1.70687 -2.19456
      CHANNELS 3 Zrotation Xrotation Yrotation
      JOINT lShin
      {
        OFFSET 0 -36.8199 0.73152
        CHANNELS 3 Zrotation Xrotation Yrotation
        JOINT lFoot
        {
          OFFSET -0.73152 -45.1104 -5.12064
          CHANNELS 3 Zrotation Xrotation Yrotation
          End Site
          {
            OFFSET 1.1221 -3.69964 12.103
          }
        }
      }
    }
  }
}
MOTION
Frames:	4
Frame Time:	0.00833333
3.53775 83.9958 -124.424 0.0 0.0 0.0 -1.70022 -0.00276352 -0.0463329 -0.469053 0.00196669 -0.0812257 -8.8195e-14 0.0 5.2181e-16 -2.6411e-13 3.18055e-15 1.56232e-15 -0.0 0.0 0.0 -0.0 0.0 0.0 -4.41335e-14 -9.31803e-17 3.47873e-16 -9.21833e-13 -2.11209e-15 2.78299e-15 -1.58947e-11 4.69529e-12 2.44903e-13 -1.82059e-10 -5.11798e-12 7.12444e-13 -4.29419e-10 -9.1629e-13 2.11825e-12 -7.41596e-10 -1.58074e-12 3.67434e-12 -4.29414e-10 -9.15205e-13 2.10553e-12 7.73091 5.47488 0.417314 -4.2942e-10 -9.15801e-13 2.12461e-12 2.90554 0.965183 0.102902 -4.29416e-10 -9.15801e-13 2.12063e-12 10.2786 0.731801 0.0259123 -4.29427e-10 -9.14807e-13 2.13415e-12 2.22167 -0.733487 -0.20892 -4.42292e-14 -9.20156e-17 4.96962e-17 -9.25421e-13 -1.73315e-15 1.19271e-15 -1.59221e-11 -4.81437e-12 2.19458e-13 -1.82034e-10 4.41473e-12 7.4425e-13 -4.29423e-10 -8.71501e-13 2.12143e-12 -7.4158e-10 -1.50122e-12 3.67831e-12 -4.29428e-10 -8.69484e-13 2.12461e-12 -7.73091 5.47488 -0.417314 -4.29422e-10 -8.71969e-13 2.11189e-12 -2.90554 0.965183 -0.102902 -4.29429e-10 -8.71373e-13 2.11745e-12 -10.2786 0.731801 -0.0259123 -4.29421e-10 -8.71074e-13 2.11189e-12 -2.22167 -0.733487 0.20892 -2.03217e-16 0.0 -3.88251e-19 -0.815215 -1.92421 -0.00353318 -0.00895483 -2.0786 -0.073777 -0.474566 3.99777 0.134763 2.03217e-16 0.0 3.88251e-19 -1.77355 -6.84759 0.169531 -0.00326685 6.8397 -0.0864363 0.504674 0.00294773 -0.0573524
3.25121 82.7956 -123.618 -1.0461 -0.2055 -2.6898 -0.400955 3.37574 -0.873046 0.559262 -1.71638 -0.211406 -0.606231 -0.193357 -0.584669 -0.211107 -0.159929 -0.985528 -0.0 0.0 0.0 -0.0 0.0 0.0 -3.16008e-14 -3.21972e-15 -1.63881e-15 22.4419 -0.0157219 -0.903678 -3.10461 -1.24388 5.01518 0.0123229 2.46371 0.345097 -2.98386e-10 -1.57113e-10 2.75591e-10 -5.13162e-10 -2.72767e-10 4.76724e-10 -2.98382e-10 -1.57111e-10 2.75578e-10 7.73091 5.47488 0.417314 -2.98386e-10 -1.57112e-10 2.75596e-10 2.90554 0.965183 0.102902 -2.98381e-10 -1.57113e-10 2.75593e-10 10.2786 0.731801 0.0259123 -2.98392e-10 -1.57113e-10 2.75606e-10 2.22167 -0.733487 -0.20892 -3.16513e-14 -3.21969e-15 -1.99833e-15 -20.2188 6.91254 -2.27399 4.3139 -1.97914 -6.71722 -0.0105207 -2.27554 0.318896 -1.95368e-10 -6.60903e-11 -2.03517e-10 -3.36039e-10 -1.12872e-10 -3.51641e-10 -1.95373e-10 -6.60891e-11 -2.0351e-10 -7.73091 5.47488 -0.417314 -1.95368e-10 -6.60922e-11 -2.03524e-10 -2.90554 0.965183 -0.102902 -1.95368e-10 -6.60845e-11 -2.03519e-10 -10.2786 0.731801 -0.0259123 -1.95366e-10 -6.6091e-11 -2.03527e-10 -2.22167 -0.733487 0.20892 -2.03217e-16 0.0 -3.88251e-19 0.928616 -8.14075 0.741041 -0.0255457 5.86042 -0.00238026 -0.489751 3.02957 -0.601257 2.03217e-16 0.0 3.88251e-19 -0.67133 -5.23319 0.213604 -0.032574 17.9042 -0.296658 0.57599 6.11304 -4.61066
3.05233 82.8871 -122.592 -1.3308 -0.3228 -2.8091 1.04962 6.94906 -1.76872 1.64065 -3.53251 -0.354106 -1.25212 -0.409472 -1.20031 -0.442069 -0.330102 -2.0219 -0.0 0.0 0.0 -0.0 0.0 0.0 -1.91484e-14 -6.12731e-15 -3.8732e-15 46.1711 -0.0469066 -1.86537 -6.15453 -2.52924 10.3305 -0.00701987 5.06012 0.710951 -1.39118e-10 -3.31923e-10 5.77662e-10 -2.35718e-10 -5.7627e-10 9.99078e-10 -1.39114e-10 -3.31921e-10 5.7765e-10 7.73091 5.47488 0.417314 -1.39117e-10 -3.31923e-10 5.77667e-10 2.90554 0.965183 0.102902 -1.3911e-10 -3.31923e-10 5.77665e-10 10.2786 0.731801 0.0259123 -1.39121e-10 -3.31925e-10 5.77677e-10 2.22167 -0.733487 -0.20892 -1.915e-14 -6.12852e-15 -4.30182e-15 -40.9675 14.1734 -4.80707 8.37761 -3.98367 -13.8503 0.00598627 -4.68183 0.657823 8.28635e-11 -1.05198e-10 -4.216e-10 1.45956e-10 -1.78977e-10 -7.28319e-10 8.28589e-11 -1.05198e-10 -4.2159e-10 -7.73091 5.47488 -0.417314 8.28633e-11 -1.05201e-10 -4.21604e-10 -2.90554 0.965183 -0.102902 8.28707e-11 -1.05186e-10 -4.21601e-10 -10.2786 0.731801 -0.0259123 8.28664e-11 -1.052e-10 -4.21612e-10 -2.22167 -0.733487 0.20892 -2.03217e-16 0.0 -3.88251e-19 2.9107 -14.7474 1.5583 -0.0646949 14.2544 0.0766363 -0.532521 2.02816 -1.37387 2.03217e-16 0.0 3.88251e-19 0.447159 -3.45035 0.242429 0.0365976 29.4875 -0.562777 1.72939 12.4347 -9.60788
2.81103 82.998 -121.608 -1.7867 -0.4665 -3.0604 2.49394 10.124 -2.56184 2.59237 -5.15294 -0.473394 -1.83053 -0.579829 -1.75409 -0.64982 -0.47922 -2.95668 -0.0 0.0 0.0 -0.0 0.0 0.0 -6.53539e-15 -9.47279e-15 -5.61217e-15 67.3242 -0.0471187 -2.71104 -8.6678 -3.61747 15.0727 -0.0526958 7.39005 1.043 -3.632e-11 -4.69507e-10 8.22535e-10 -5.62923e-11 -8.1514e-10 1.42282e-09 -3.6318e-11 -4.69503e-10 8.22523e-10 7.73091 5.47488 0.417314 -3.63196e-11 -4.69506e-10 8.22539e-10 2.90554 0.965183 0.102902 -3.63112e-11 -4.69507e-10 8.22539e-10 10.2786 0.731801 0.0259123 -3.63221e-11 -4.6951e-10 8.22549e-10 2.22167 -0.733487 -0.20892 -6.49551e-15 -9.47503e-15 -6.09438e-15 -58.9192 20.6024 -7.23749 11.5758 -5.61166 -20.2408 0.044887 -6.82578 0.962757 2.7274e-10 -1.96528e-10 -6.14794e-10 4.75043e-10 -3.35615e-10 -1.06228e-09 2.72735e-10 -1.96528e-10 -6.1478e-10 -7.73091 5.47488 -0.417314 2.72739e-10 -1.96533e-10 -6.14795e-10 -2.90554 0.965183 -0.102902 2.72753e-10 -1.96511e-10 -6.14793e-10 -10.2786 0.731801 -0.0259123 2.72743e-10 -1.96531e-10 -6.14806e-10 -2.22167 -0.733487 0.20892 -2.03217e-16 0.0 -3.88251e-19 4.92974 -20.5599 2.35805 -0.120771 21.7384 0.151099 -0.594738 1.09293 -2.0705 2.03217e-16 0.0 3.88251e-19 1.52564 -2.00442 0.301682 0.223033 40.0306 -0.881862 3.72551 17.856 -14.3431
